#!OML:ASF F:\VICON\USERDATA\INSTALL\rory3\rory3.ASF
:FULLY-SPECIFIED
:DEGREES
29
root -1.1369765058990984 18.391756512056972 -0.8724851447852764 1.9779850634638065 4.066409216157673 1.37619547867534
lfemur -2.072612610328033 4.16585525590182 -28.891363664003997
ltibia 36.30128008127111
lfoot 25.93472599689405 -19.749448584040806
ltoes -10.401607789194362
rfemur -25.88303393595774 5.122321287830016 26.033613446441244
rtibia 72.11952514519807
rfoot 17.201480263588646 -8.656946864474904
rtoes -12.425768846079745
lowerback 15.508016083170235 -0.10565276875576013 -2.3086257147907547
upperback 0.37796650669006937 -1.1521578275478963 1.2631315232617726
thorax -8.446208389832288 -0.45177833534358713 2.5466098138541553
lowerneck -19.288442913305186 -4.1527149055821875 -1.8057505072133144
upperneck 13.274842400594736 -6.397193227294099 4.4961120112714825
head 7.41098726913509 -2.807542715119971 0.7410269345868485
lclavicle 1.1115946937832412e-16 1.6568687438251063e-15
lhumerus -23.975391802026117 -13.577622905992865 90.45389447544977
lradius 116.65037317405981
lwrist 34.691351210879056
lhand -28.437623927481596 9.653041387982835
lfingers 7.125019999999998
lthumb -2.181351441402253 39.12464005962117
rclavicle 1.1404359217081578e-16 1.6700045593675944e-15
rhumerus -54.75131391583694 3.603332236256538 -90.94750877503603
rradius 90.46066226287522
rwrist -19.84438487291325
rhand -18.404207958260873 42.20913796851457
rfingers 7.125019999999998
rthumb 8.030994685618033 12.01035422321433
30
root -1.1358323210799106 18.495531722077388 0.09661682658574833 2.3986693144661553 3.744826150621382 1.0419493941416198
lfemur -0.46728255249665196 3.2140366661747857 -28.778652398733342
ltibia 35.53125103553883
lfoot 21.488621492059565 -17.822223981638633
ltoes -11.322898949645431
rfemur -24.727147767953912 6.273524035485918 24.980278408672767
rtibia 53.62810658383023
rfoot 15.570627950236531 -8.800433361683577
rtoes -8.612744057535844
lowerback 15.476887143752206 -0.1310251619411923 -2.12009513639636
upperback 0.37382612602679877 -1.1923373756382087 1.645275116963607
thorax -8.440919438406658 -0.4709861534581614 2.5784714022934736
lowerneck -19.45721474592675 -4.102495711652524 -1.8295307218346941
upperneck 13.187050109500747 -5.396592576557647 3.8733995638024217
head 7.460952922850231 -2.6100922238145867 0.7071237787388122
lclavicle 1.1113073801331197e-16 1.6567651106761609e-15
lhumerus -25.561843627352584 -13.202901074493475 90.99026334140989
lradius 114.69297109460885
lwrist 34.68958182656291
lhand -28.47413680168887 10.074766454726479
lfingers 7.125019999999998
lthumb -2.279437164401285 39.40899448256704
rclavicle 1.1404116963589426e-16 1.6700015647534593e-15
rhumerus -61.71352306738036 -1.6859896713332336 -87.85708142614824
rradius 88.96294463118736
rwrist -19.19034372479619
rhand -18.53007233377617 42.071398723647654
rfingers 7.125019999999998
rthumb 7.947336888155004 12.090355208259336
31
root -1.1335867537227573 18.47380740011479 0.8576993552859955 2.9242020287346313 3.59672179831383 1.2236415359193562
lfemur 0.21059374576531198 2.3906627088787022 -28.060058311542033
ltibia 35.26531031742495
lfoot 14.131829283767587 -15.279780168171744
ltoes -10.702283315232057
rfemur -24.06758632299404 7.0082689152363535 23.958707193420413
rtibia 38.7798694231681
rfoot 13.514419748438693 -8.978479876007741
rtoes -0.40667549560278227
lowerback 15.5076479250602 -0.17924447424416 -1.9528427846124048
upperback 0.30605738513881353 -1.135268058404634 1.8933204225078786
thorax -8.434422769144728 -0.5433825840083806 2.8145130520987056
lowerneck -19.630286372479322 -4.122066861925993 -1.8644615847115162
upperneck 13.02465691844449 -4.494529484975347 3.35542066064713
head 7.510219937517405 -2.4369151315976665 0.6872292430772013
lclavicle 1.110487027621728e-16 1.6567645186559363e-15
lhumerus -28.98819069104819 -12.354123785199768 91.60692452916317
lradius 112.43185015667535
lwrist 34.72350724455306
lhand -28.240370327728908 11.19736446943391
lfingers 7.125019999999998
lthumb -2.1224057662559934 40.38332438848282
rclavicle 1.1405896861909333e-16 1.670014330471103e-15
rhumerus -69.92109030443693 -5.480176963548406 -85.4292191854195
rradius 87.99924917401478
rwrist -18.631760346560252
rhand -18.47586615891516 41.86398919112475
rfingers 7.125019999999998
rthumb 7.982019319017991 11.820868008678405
32
root -1.139378451452799 18.380517545909388 1.5971183813566752 3.411492957889749 3.629936637681159 1.4478051146432767
lfemur -0.06481004303481441 1.7735920349933436 -27.091551842628796
ltibia 36.14466657632832
lfoot 9.403528329525024 -14.101102596670513
ltoes -9.361738758445027
rfemur -24.128064651539912 6.713900851906087 23.279244178998812
rtibia 32.25710318780798
rfoot 11.290844604140737 -9.065759854794244
rtoes 8.796540053928712
lowerback 15.633792522234945 -0.22178698460973167 -1.4361517609529137
upperback 0.16886274198232742 -0.9708916843807978 2.0738934989148077
thorax -8.497283190840651 -0.5472867708588447 2.7132700586273515
lowerneck -19.803404440330414 -4.1786949945202725 -1.8822751920305205
upperneck 12.777257467187193 -3.814423898782013 2.870552687373631
head 7.547347086263263 -2.2600821200915484 0.6531206372404289
lclavicle 1.1104256915728224e-16 1.6567816095409953e-15
lhumerus -33.544909254025654 -11.126805183465319 92.2150081910433
lradius 110.01659775553227
lwrist 34.942222721327994
lhand -28.021069598678043 12.102837235738406
lfingers 7.125019999999998
lthumb -1.9728185618018343 40.94151913993472
rclavicle 1.1404563991195479e-16 1.6700047847318272e-15
rhumerus -70.0339598197123 -3.7747974879341832 -85.96924296330266
rradius 87.97045918060573
rwrist -18.372560984225508
rhand -18.527210608066948 41.64959982403082
rfingers 7.125019999999998
rthumb 7.882390365240909 11.4338676828003
33
root -1.1378987362360342 18.343820698651115 2.4152688293534856 3.747685748121305 3.7271467758192958 1.2609778796926923
lfemur -1.1220846029263214 1.7351558025982134 -25.744314561701152
ltibia 38.73181861746694
lfoot 6.291631028149414 -13.62498488442867
ltoes -10.139055905519738
rfemur -24.52220000663159 5.613736248465399 23.45972814210176
rtibia 34.06659833361054
rfoot 9.475693671056712 -9.113119622094617
rtoes 10.600098151346508
lowerback 15.811917112065537 -0.22375602664499883 -0.8681411542242558
upperback 0.05034767164509368 -0.7184426281186407 2.2043250276266306
thorax -8.46777538327539 -0.47160001205426205 2.608944712410044
lowerneck -19.914232350923868 -4.204509678534855 -1.8814530880373233
upperneck 12.526628365791934 -3.4606599449549664 2.634135777150282
head 7.520886237249701 -2.0979611855105333 0.6443741582789575
lclavicle 1.1103690325203892e-16 1.6567508597733644e-15
lhumerus -38.29467588520305 -9.925736418278865 92.75667259234321
lradius 107.47978669422238
lwrist 35.25256473912718
lhand -27.78121974676867 12.900480235493761
lfingers 7.125019999999998
lthumb -1.7520032523065987 41.472348269098774
rclavicle 1.140399131267853e-16 1.6700014241199257e-15
rhumerus -68.96512296448556 -2.3643025811675216 -86.65849764929587
rradius 88.91483628990018
rwrist -18.4139997918173
rhand -18.384210312665868 41.602029242831584
rfingers 7.125019999999998
rthumb 7.986992230518667 11.366638641116765
